<?xml version="1.0" encoding="utf-8"?>
<!-- Generator: Adobe Illustrator 23.0.5, SVG Export Plug-In . SVG Version: 6.00 Build 0)  -->
<svg version="1.1" xmlns="http://www.w3.org/2000/svg" xmlns:xlink="http://www.w3.org/1999/xlink" x="0px" y="0px"
	 viewBox="0 0 1920 1080" style="enable-background:new 0 0 1920 1080;" xml:space="preserve">
<style type="text/css">
	.st0{fill:#EBEBEB;}
</style>
<g id="image">
</g>
<g id="font">
	<g>
		<path class="st0" d="M437.03,533.79c-0.4,0-0.9,0.46-1.49,1.37c-0.9,1.38-1.34,3.08-1.34,5.11c0,1.99,0.45,3.69,1.34,5.1
			c0.6,0.9,1.1,1.34,1.49,1.34h109.72v27.87H423.43c-5.1,0-9.29-2.53-12.58-7.6c-3-4.58-4.51-10.09-4.51-16.54v-61.18
			c0-6.42,1.5-11.94,4.51-16.54c3.27-5.08,7.46-7.62,12.58-7.62h123.32V493H437.03c-0.4,0-0.9,0.45-1.49,1.34
			c-0.9,1.41-1.34,3.11-1.34,5.1c0,2.03,0.45,3.73,1.34,5.11c0.6,0.91,1.1,1.37,1.49,1.37h109.72v27.87H437.03z"/>
		<path class="st0" d="M669.79,583.47l-38.67-42.51l-30.26,33.62h-35.61l49.33-54.74l-49.33-54.74h35.61l30.26,33.62l30.26-33.62
			h35.61l-49.31,54.74l49.48,54.54c7.87,8.4,14.06,12.6,18.58,12.6h61.91v27.89h-64.1C702.17,614.87,687.58,604.4,669.79,583.47z
			 M780.85,587h11.46v27.89h-11.46V587z M797.31,587h7.79v27.89h-7.79V587z M811.26,587h5.03v27.89h-5.03V587z"/>
		<path class="st0" d="M715.78,533.79v-27.87h73.89v27.87H715.78z"/>
		<path class="st0" d="M806.88,493v-27.89h123.12c5.11,0,9.3,2.54,12.58,7.62c3,4.6,4.51,10.11,4.51,16.54v61.18
			c0,6.44-1.5,11.95-4.51,16.54c-3.29,5.06-7.48,7.6-12.58,7.6H806.88v-27.87h108.1c0.6,0,1.34-0.45,2.24-1.34
			c1.34-1.41,2.02-3.11,2.02-5.1v-40.82c0-1.99-0.67-3.69-2.02-5.1c-0.9-0.9-1.64-1.34-2.24-1.34H806.88z"/>
		<path class="st0" d="M964.26,574.58V465.11h27.82v109.47H964.26z"/>
		<path class="st0" d="M1025.57,574.58c-5.12,0-9.31-2.53-12.58-7.6c-2.99-4.6-4.48-10.11-4.48-16.54v-61.18
			c0-6.44,1.49-11.95,4.48-16.54c3.29-5.08,7.48-7.62,12.58-7.62h106.06c5.11,0,9.3,2.54,12.58,7.62c3,4.6,4.51,10.11,4.51,16.54
			v10.18h-27.84c0-2.14-0.44-3.83-1.32-5.08c-0.62-0.91-1.12-1.37-1.52-1.37h-78.87c-0.4,0-0.9,0.45-1.49,1.34
			c-0.9,1.41-1.34,3.11-1.34,5.1v40.82c0,1.99,0.45,3.69,1.34,5.1c0.6,0.9,1.1,1.34,1.49,1.34h78.87c0.4,0,0.9-0.45,1.49-1.34
			c0.9-1.41,1.35-3.11,1.35-5.1v-6.47h-59.34v-27.87h87.18v44.53c0,6.44-1.5,11.95-4.51,16.54c-3.29,5.06-7.48,7.6-12.58,7.6
			H1025.57z"/>
		<path class="st0" d="M1165.89,574.58V465.11h27.82v109.47H1165.89z"/>
		<path class="st0" d="M1259.68,574.58V493h-49.53v-27.89h126.93V493h-49.56v81.58H1259.68z"/>
		<path class="st0" d="M1372.33,574.58c-5.65,0-10.2-2.66-13.67-7.97c-2.92-4.5-4.38-9.89-4.38-16.16v-10.68h29.81
			c0,2.66,0.47,4.65,1.42,5.98c0.43,0.65,0.57,0.97,0.42,0.97h78.87c-0.15,0-0.01-0.32,0.42-0.97c0.95-1.49,1.42-3.32,1.42-5.48
			c0-2.17-0.47-4-1.42-5.48c-0.43-0.66-0.57-1-0.42-1h-92.46c-5.66,0-10.22-2.66-13.67-7.97c-2.92-4.52-4.38-9.9-4.38-16.16v-20.39
			c0-6.26,1.46-11.65,4.38-16.16c3.45-5.33,8.01-7.99,13.67-7.99h106.06c5.66,0,10.22,2.66,13.67,7.99
			c2.94,4.52,4.41,9.9,4.41,16.16v10.68h-29.83c0-2.66-0.47-4.65-1.42-5.98c-0.43-0.65-0.57-0.97-0.42-0.97h-78.87
			c0.15,0,0.01,0.32-0.42,0.97c-0.95,1.49-1.42,3.32-1.42,5.48c0,2.18,0.47,4,1.42,5.48c0.43,0.66,0.57,1,0.42,1h92.46
			c5.66,0,10.22,2.66,13.67,7.97c2.94,4.52,4.41,9.9,4.41,16.16v20.39c0,6.28-1.47,11.66-4.41,16.16
			c-3.46,5.31-8.01,7.97-13.67,7.97H1372.33z"/>
	</g>
</g>
</svg>
