<?xml version="1.0" encoding="UTF-8" standalone="no"?>
<!-- Created with Inkscape (http://www.inkscape.org/) -->

<svg
   width="64"
   height="64"
   viewBox="0 0 16.933333 16.933333"
   version="1.1"
   id="svg1"
   inkscape:version="1.4 (86a8ad7, 2024-10-11)"
   sodipodi:docname="whip.svg"
   xmlns:inkscape="http://www.inkscape.org/namespaces/inkscape"
   xmlns:sodipodi="http://sodipodi.sourceforge.net/DTD/sodipodi-0.dtd"
   xmlns="http://www.w3.org/2000/svg"
   xmlns:svg="http://www.w3.org/2000/svg">
  <sodipodi:namedview
     id="namedview1"
     pagecolor="#ffffff"
     bordercolor="#000000"
     borderopacity="0.25"
     inkscape:showpageshadow="2"
     inkscape:pageopacity="0.0"
     inkscape:pagecheckerboard="0"
     inkscape:deskcolor="#d1d1d1"
     inkscape:document-units="px"
     inkscape:zoom="7.671875"
     inkscape:cx="37.148676"
     inkscape:cy="30.826884"
     inkscape:window-width="1920"
     inkscape:window-height="1057"
     inkscape:window-x="-8"
     inkscape:window-y="-8"
     inkscape:window-maximized="1"
     inkscape:current-layer="layer1" />
  <defs
     id="defs1" />
  <g
     inkscape:label="whip"
     inkscape:groupmode="layer"
     id="layer1">
    <path
       style="fill:#4d4d4d;stroke:none;stroke-width:0;stroke-dasharray:none"
       d="m 12.70403,13.081125 c 0.84618,-1.741527 2.793726,-2.010904 2.046808,-5.2695468 -0.746918,-3.2586425 0.213447,-2.783821 -3.8931,-5.6724313 -4.1065457,-2.88861042 -8.3807557,1.1347682 -8.1981707,1.4392966 0.182584,0.3045285 2.097212,-1.2183567 2.097212,-1.2183567 0,0 1.615625,-0.6601248 2.035001,-0.6967565 0.419377,-0.036632 2.933156,0.2996652 3.087112,0.3089061 0.1539547,0.00924 2.3961247,1.7816299 2.5787087,2.0861583 0.182584,0.3045285 1.360927,1.7812981 1.430808,2.418984 0.06988,0.6376859 0.160388,1.446571 0.04306,1.856706 -0.117322,0.4101353 0.254611,1.4213244 -0.245457,2.2874673 -0.500068,0.866143 -1.210443,1.889624 -1.527595,2.025098 -0.317151,0.135473 0.545609,0.434475 0.545609,0.434475 z"
       id="path1-6"
       inkscape:label="shadow" />
    <path
       style="fill:#808080;stroke:none;stroke-width:0;stroke-dasharray:none"
       d="m 12.234885,13.049228 c 0.84618,-1.741527 2.793726,-2.010904 2.046808,-5.2695468 C 13.534775,4.5210387 14.49514,4.9958602 10.388593,2.1072499 6.2820467,-0.78136048 2.0078373,3.2420181 2.1904218,3.5465465 2.3730061,3.851075 4.2876337,2.3281898 4.2876337,2.3281898 c 0,0 1.6156258,-0.6601248 2.0350017,-0.6967565 0.4193762,-0.036632 2.9331561,0.2996652 3.0871116,0.3089061 0.1539555,0.00924 2.396125,1.7816299 2.578709,2.0861583 0.182584,0.3045285 1.360927,1.7812981 1.430808,2.418984 0.06988,0.6376859 0.160388,1.446571 0.04306,1.856706 -0.117322,0.4101353 0.254611,1.4213244 -0.245457,2.2874673 -0.500068,0.866143 -1.210443,1.889624 -1.527595,2.025098 -0.317151,0.135473 0.545609,0.434475 0.545609,0.434475 z"
       id="path1"
       inkscape:label="whip" />
    <rect
       style="fill:#4d4d4d;stroke:none;stroke-width:0;stroke-dasharray:none"
       id="rect1"
       width="1.2070603"
       height="4.0005431"
       x="17.005487"
       y="1.6822703"
       transform="rotate(40)"
       inkscape:label="base" />
  </g>
</svg>
