<?xml version="1.0" encoding="UTF-8" standalone="no"?>
<!-- Created with Inkscape (http://www.inkscape.org/) -->

<svg
   width="64"
   height="64"
   viewBox="0 0 16.933333 16.933333"
   version="1.1"
   id="svg1"
   inkscape:version="1.4 (86a8ad7, 2024-10-11)"
   sodipodi:docname="iron.svg"
   xmlns:inkscape="http://www.inkscape.org/namespaces/inkscape"
   xmlns:sodipodi="http://sodipodi.sourceforge.net/DTD/sodipodi-0.dtd"
   xmlns="http://www.w3.org/2000/svg"
   xmlns:svg="http://www.w3.org/2000/svg">
  <sodipodi:namedview
     id="namedview1"
     pagecolor="#ffffff"
     bordercolor="#000000"
     borderopacity="0.25"
     inkscape:showpageshadow="2"
     inkscape:pageopacity="0.0"
     inkscape:pagecheckerboard="0"
     inkscape:deskcolor="#d1d1d1"
     inkscape:document-units="mm"
     inkscape:zoom="8.1336326"
     inkscape:cx="16.720696"
     inkscape:cy="38.420717"
     inkscape:window-width="1920"
     inkscape:window-height="1057"
     inkscape:window-x="-8"
     inkscape:window-y="-8"
     inkscape:window-maximized="1"
     inkscape:current-layer="layer1" />
  <defs
     id="defs1">
    <inkscape:path-effect
       effect="envelope"
       id="path-effect12"
       is_visible="true"
       lpeversion="1"
       yy="true"
       xx="true"
       bendpath1="M 2.6378818,2.4075246 H 14.20002"
       bendpath2="M 14.102431,1.6593452 13.256663,10.516569"
       bendpath3="M 2.6378818,14.062289 H 14.20002"
       bendpath4="M 2.7029409,1.3340498 3.4185908,13.021344"
       bendpath2-nodetypes="cc"
       bendpath4-nodetypes="cc" />
  </defs>
  <g
     inkscape:label="Слой 1"
     inkscape:groupmode="layer"
     id="layer1">
    <g
       id="g4"
       inkscape:label="armor"
       transform="translate(0.15125673,0.36407989)"
       inkscape:path-effect="#path-effect12">
      <path
         style="opacity:1;fill:#4d4d4d;stroke-width:0.305591"
         id="rect2"
         width="11.562139"
         height="2.7975407"
         x="2.6378818"
         y="2.9562418"
         sodipodi:type="rect"
         d="M 2.6934296,2.3218038 C 6.4413576,2.7192178 10.406288,2.6298701 14.116601,2.4357405 14.056874,3.1088837 13.972986,3.71846 13.888323,4.3418307 10.455181,4.9761362 6.3791094,4.7979317 2.8813175,4.7838645 2.8107564,3.9214741 2.7415256,3.1004813 2.6934296,2.3218038 Z" />
      <path
         style="opacity:1;fill:#333333;stroke-width:0.275007"
         id="rect1"
         width="6.8637328"
         height="11.092573"
         x="4.9609528"
         y="2.9697161"
         sodipodi:type="rect"
         d="m 4.9736507,2.609127 c 2.6113593,0.3067755 4.2213187,0.2877694 6.8260783,0.036165 -0.09242,2.8137402 -0.42031,5.1527114 -0.07904,10.8371026 -2.2312365,0.878996 -4.422372,0.575103 -6.6834334,0.248277 0.2558635,-4.8297117 0.00344,-8.2291355 -0.0636,-11.121545 z" />
      <path
         style="opacity:1;fill:#4d4d4d;stroke-width:0.424373"
         id="rect3"
         width="0.66147268"
         height="11.086897"
         x="8.1196566"
         y="2.9672399"
         sodipodi:type="rect"
         d="m 8.1165088,2.8324684 c 0.2203287,0.00302 0.4399424,0.00308 0.6602061,2.421e-4 -0.014305,2.8374432 -0.079073,5.7296865 0.0013,11.2084605 -0.2201841,0.0069 -0.4405256,0.0072 -0.6610873,0.0021 -0.01809,-5.3889082 -0.00429,-8.3748368 -4.189e-4,-11.2107626 z" />
      <path
         style="opacity:1;fill:#1a1a1a;fill-opacity:1;stroke-width:0.245161"
         id="rect4"
         width="2.9927177"
         height="0.55858338"
         x="6.928792"
         y="2.4075246"
         sodipodi:type="rect"
         d="m 6.9265452,2.3598786 c 1.0197313,0.062233 1.9724171,0.059111 2.9913244,0.00238 -0.00111,0.1440527 -0.00258,0.2873993 -0.00435,0.4304251 -1.0164176,0.055681 -1.9674258,0.056139 -2.9850776,-0.00571 -8.034e-4,-0.143057 -0.00145,-0.2853443 -0.0019,-0.4270857 z" />
    </g>
  </g>
</svg>
