<?xml version="1.0" encoding="UTF-8" standalone="no"?>
<!-- Created with Inkscape (http://www.inkscape.org/) -->

<svg
   width="260"
   height="356"
   viewBox="0 0 68.791665 94.191666"
   version="1.1"
   id="svg1"
   inkscape:version="1.4 (86a8ad7, 2024-10-11)"
   sodipodi:docname="stats.svg"
   xmlns:inkscape="http://www.inkscape.org/namespaces/inkscape"
   xmlns:sodipodi="http://sodipodi.sourceforge.net/DTD/sodipodi-0.dtd"
   xmlns="http://www.w3.org/2000/svg"
   xmlns:svg="http://www.w3.org/2000/svg">
  <sodipodi:namedview
     id="namedview1"
     pagecolor="#ffffff"
     bordercolor="#000000"
     borderopacity="0.25"
     inkscape:showpageshadow="2"
     inkscape:pageopacity="0.0"
     inkscape:pagecheckerboard="0"
     inkscape:deskcolor="#d1d1d1"
     inkscape:document-units="mm"
     inkscape:zoom="0.71891835"
     inkscape:cx="-203.08287"
     inkscape:cy="245.50771"
     inkscape:window-width="1920"
     inkscape:window-height="1057"
     inkscape:window-x="-8"
     inkscape:window-y="-8"
     inkscape:window-maximized="1"
     inkscape:current-layer="g8" />
  <defs
     id="defs1">
    <inkscape:path-effect
       effect="envelope"
       id="path-effect9"
       is_visible="true"
       lpeversion="1"
       yy="true"
       xx="true"
       bendpath1="M 49.379841,65.319313 53.088209,64.08319"
       bendpath2="m 50.8762,65.904845 1.171064,1.886713"
       bendpath3="m 48.078659,70.003567 h 5.139668"
       bendpath4="m 48.859368,65.51449 1.496359,3.318014"
       bendpath3-nodetypes="cc"
       bendpath2-nodetypes="cc"
       bendpath4-nodetypes="cc"
       bendpath1-nodetypes="cc" />
  </defs>
  <g
     inkscape:label="Слой 1"
     inkscape:groupmode="layer"
     id="layer1">
    <g
       id="g9"
       inkscape:label="stats">
      <rect
         style="display:inline;fill:#1a1a1a;stroke-width:0.264999"
         id="rect1"
         width="68.786537"
         height="94.215614"
         x="0"
         y="0"
         inkscape:label="background" />
      <g
         id="g7"
         inkscape:label="aura">
        <g
           id="g5"
           inkscape:label="rock"
           transform="matrix(2.4621769,0,0,2.5393725,-66.799387,-10.281986)"
           style="display:inline">
          <rect
             style="display:none;fill:#b3b3b3;stroke-width:0.599943"
             id="rect2"
             width="6.0724912"
             height="6.3075294"
             x="45.483871"
             y="9.6757708"
             inkscape:label="body" />
          <g
             id="g4"
             inkscape:label="hat"
             transform="rotate(-10,51.331708,-1.2989359)">
            <rect
               style="fill:#ececec;stroke-width:0.264583"
               id="rect3"
               width="5.6124535"
               height="1.472119"
               x="43.933552"
               y="5.3364315"
               inkscape:label="hill" />
            <rect
               style="fill:#ececec;stroke-width:0.264583"
               id="rect4"
               width="7.958643"
               height="1.1040891"
               x="42.82946"
               y="6.8085499"
               inkscape:label="bottom" />
          </g>
        </g>
        <g
           id="g16-4-0-2"
           inkscape:label="ray"
           transform="matrix(2.4621769,0,0,2.5393725,-102.88518,11.136573)"
           style="display:inline">
          <rect
             style="display:none;fill:#b3b3b3;stroke-width:0.599943"
             id="rect7-3-7-2"
             width="6.0724912"
             height="6.3075294"
             x="45.483871"
             y="9.6757708"
             inkscape:label="body" />
          <g
             id="g14-0-8-1"
             inkscape:label="hat"
             transform="rotate(-10,51.331708,-1.2989359)">
            <rect
               style="fill:#ececec;stroke-width:0.264583"
               id="rect12-2-3-6"
               width="5.6124535"
               height="1.472119"
               x="43.933552"
               y="5.3364315"
               inkscape:label="hill" />
            <rect
               style="fill:#ececec;stroke-width:0.264583"
               id="rect13-4-8-8"
               width="7.958643"
               height="1.1040891"
               x="42.82946"
               y="6.8085499"
               inkscape:label="bottom" />
          </g>
        </g>
      </g>
      <g
         id="g8"
         inkscape:label="stats">
        <g
           id="g3"
           transform="matrix(0,-2,2,0,-30.363137,123.87858)"
           inkscape:label="sword">
          <rect
             style="fill:#808080;stroke:none;stroke-width:1.2617"
             id="rect7"
             width="1.2192142"
             height="11.671073"
             x="48.758526"
             y="27.957182" />
          <rect
             style="fill:#808080;stroke:none;stroke-width:0.697591"
             id="rect7-5"
             width="4.992641"
             height="0.87126553"
             x="46.87096"
             y="36.967476" />
        </g>
        <g
           id="g2"
           transform="matrix(1.8347456,-1.0528583,1.0592909,1.823604,-87.461362,-77.908312)"
           inkscape:label="shield">
          <rect
             style="fill:#808080;stroke:none;stroke-width:2.31522"
             id="rect7-2"
             width="5.9685273"
             height="8.0277643"
             x="16.674852"
             y="70.35627"
             ry="2.2120092" />
          <rect
             style="fill:#999999;stroke:none;stroke-width:1.74136"
             id="rect7-2-1"
             width="3.5490227"
             height="7.6374097"
             x="17.870419"
             y="70.550613"
             ry="0.76243144" />
        </g>
        <g
           id="g1"
           transform="matrix(2,0,0,2,10.570053,16.459144)"
           inkscape:label="reaction">
          <path
             style="fill:#808080;stroke:none;stroke-width:3.16272"
             id="path7"
             sodipodi:type="arc"
             sodipodi:cx="16.396864"
             sodipodi:cy="25.965139"
             sodipodi:rx="2.2465146"
             sodipodi:ry="2.1860456"
             sodipodi:start="3.1291354"
             sodipodi:end="3.1286167"
             sodipodi:arc-type="slice"
             d="m 14.150524,25.992371 a 2.2465146,2.1860456 0 0 1 2.218064,-2.213104 2.2465146,2.1860456 0 0 1 2.274609,2.158074 2.2465146,2.1860456 0 0 1 -2.217475,2.213664 2.2465146,2.1860456 0 0 1 -2.275183,-2.1575 l 2.246325,-0.02837 z" />
          <path
             style="fill:#808080;stroke:none;stroke-width:2.33011"
             id="path7-7"
             sodipodi:type="arc"
             sodipodi:cx="20.088634"
             sodipodi:cy="28.651953"
             sodipodi:rx="1.6655192"
             sodipodi:ry="1.6004976"
             sodipodi:start="3.1291354"
             sodipodi:end="3.1286167"
             sodipodi:arc-type="slice"
             d="m 18.423244,28.67189 a 1.6655192,1.6004976 0 0 1 1.644427,-1.620308 1.6655192,1.6004976 0 0 1 1.686348,1.580018 1.6655192,1.6004976 0 0 1 -1.643989,1.620718 1.6655192,1.6004976 0 0 1 -1.686775,-1.579598 l 1.665379,-0.02077 z" />
          <path
             style="fill:#808080;stroke:none;stroke-width:1.88681"
             id="path7-7-9"
             sodipodi:type="arc"
             sodipodi:cx="16.977488"
             sodipodi:cy="31.038572"
             sodipodi:rx="1.3169222"
             sodipodi:ry="1.3272419"
             sodipodi:start="3.1291354"
             sodipodi:end="3.1286167"
             sodipodi:arc-type="slice"
             d="m 15.660668,31.055106 a 1.3169222,1.3272419 0 0 1 1.300244,-1.34367 1.3169222,1.3272419 0 0 1 1.333391,1.310259 1.3169222,1.3272419 0 0 1 -1.299898,1.34401 1.3169222,1.3272419 0 0 1 -1.333729,-1.309911 l 1.316812,-0.01722 z" />
        </g>
        <path
           style="fill:#808080;stroke:none;stroke-width:2.64583"
           id="rect9"
           width="3.2529576"
           height="4.0336652"
           x="50.681023"
           y="65.904846"
           ry="0.84576803"
           inkscape:path-effect="#path-effect9"
           sodipodi:type="rect"
           d="m 49.833972,65.143458 c 0.960362,-0.347773 1.959628,-0.87801 2.228638,-0.661855 0.115628,0.09291 -0.331012,1.088227 -0.511564,1.559602 -0.320762,0.837425 -0.0365,0.744387 0.492599,1.567186 0.310737,0.483227 0.576496,1.545198 0.08191,1.888406 -0.786073,0.54548 -2.3217,0.400051 -2.732481,0.09996 -0.20152,-0.147219 0.359337,-0.898337 0.420059,-1.411201 0.101177,-0.854536 -0.481493,-1.359396 -0.674615,-2.027934 -0.103348,-0.357763 0.180769,-0.82778 0.695453,-1.014161 z"
           transform="matrix(2.5151052,2.1104239,-1.7907907,2.1341813,20.56962,-179.71675)"
           rx="0.58553171"
           inkscape:label="influence" />
      </g>
      <g
         id="g6"
         inkscape:label="resource">
        <g
           id="g5-4"
           inkscape:label="rock"
           transform="matrix(2.4621769,0,0,2.5393725,-103.06919,42.54618)"
           style="display:inline">
          <rect
             style="display:none;fill:#b3b3b3;stroke-width:0.599943"
             id="rect2-7"
             width="6.0724912"
             height="6.3075294"
             x="45.483871"
             y="9.6757708"
             inkscape:label="body" />
          <g
             id="g4-4"
             inkscape:label="hat"
             transform="rotate(-10,51.331708,-1.2989359)">
            <rect
               style="fill:#ececec;stroke-width:0.264583"
               id="rect3-6"
               width="5.6124535"
               height="1.472119"
               x="43.933552"
               y="5.3364315"
               inkscape:label="hill" />
            <rect
               style="fill:#ececec;stroke-width:0.264583"
               id="rect4-3"
               width="7.958643"
               height="1.1040891"
               x="42.82946"
               y="6.8085499"
               inkscape:label="bottom" />
          </g>
        </g>
        <g
           id="g16-4-0-2-6"
           inkscape:label="ray"
           transform="matrix(2.4621769,0,0,2.5393725,-64.628961,66.172917)"
           style="display:inline">
          <rect
             style="display:none;fill:#b3b3b3;stroke-width:0.599943"
             id="rect7-3-7-2-5"
             width="6.0724912"
             height="6.3075294"
             x="45.483871"
             y="9.6757708"
             inkscape:label="body" />
          <g
             id="g14-0-8-1-2"
             inkscape:label="hat"
             transform="rotate(-10,51.331708,-1.2989359)">
            <rect
               style="fill:#ececec;stroke-width:0.264583"
               id="rect12-2-3-6-8"
               width="5.6124535"
               height="1.472119"
               x="43.933552"
               y="5.3364315"
               inkscape:label="hill" />
            <rect
               style="fill:#ececec;stroke-width:0.264583"
               id="rect13-4-8-8-1"
               width="7.958643"
               height="1.1040891"
               x="42.82946"
               y="6.8085499"
               inkscape:label="bottom" />
          </g>
        </g>
      </g>
    </g>
  </g>
</svg>
